<svg xmlns="http://www.w3.org/2000/svg" viewBox="0 0 37 36">
  <path fill="#8191DA" fill-rule="evenodd" d="M65,18.4560962 C65,26.6100879 70.2875753,33.5268754 77.621296,35.9672947 C78.5446673,36.1372404 78.8811597,35.567356 78.8811597,35.0779126 C78.8811597,34.6394528 78.8652981,33.4792906 78.8562343,31.9395831 C73.7227431,33.0544265 72.6396229,29.4651746 72.6396229,29.4651746 C71.8000914,27.3329234 70.5900785,26.765305 70.5900785,26.765305 C68.9144145,25.6210043 70.7169712,25.6436637 70.7169712,25.6436637 C72.5693787,25.7739554 73.5437337,27.5459219 73.5437337,27.5459219 C75.1899404,30.3658865 77.8637518,29.5512804 78.9151488,29.0788316 C79.0828285,27.8869462 79.5598093,27.073473 80.0866407,26.6123539 C75.9886849,26.1467028 71.6799965,24.5628095 71.6799965,17.490805 C71.6799965,15.4763827 72.3994331,13.82791 73.5799888,12.5385891 C73.3896496,12.0718051 72.7563189,10.1944723 73.7612641,7.65435152 C73.7612641,7.65435152 75.3100353,7.15811026 78.8358408,9.54641295 C80.3075701,9.13627748 81.8869315,8.93234271 83.4560962,8.92441192 C85.024128,8.93234271 86.6023565,9.13627748 88.0763516,9.54641295 C91.5998912,7.15811026 93.1463965,7.65435152 93.1463965,7.65435152 C94.1536076,10.1944723 93.5202769,12.0718051 93.3310708,12.5385891 C94.5138924,13.82791 95.2276641,15.4763827 95.2276641,17.490805 C95.2276641,24.580937 90.9121779,26.141038 86.8017594,26.5976253 C87.4634144,27.1675096 88.0536922,28.2936827 88.0536922,30.0146655 C88.0536922,32.4822762 88.0310328,34.4729061 88.0310328,35.0779126 C88.0310328,35.5718879 88.3641263,36.1463041 89.2999602,35.9661618 C96.6280161,33.5200776 101.91106,26.607822 101.91106,18.4560962 C101.91106,8.2627569 93.6471696,0 83.4538303,0 C73.2638899,0 65,8.2627569 65,18.4560962 Z" transform="translate(-65)"/>
</svg>
