<svg xmlns="http://www.w3.org/2000/svg" viewBox="0 0 42 36">
  <path fill="#8191DA" fill-rule="evenodd" d="M36.9071195,6.37641891 C38.6793652,5.3140815 40.040265,3.63197076 40.6811566,1.62773092 C39.0227655,2.61125764 37.185788,3.3256038 35.2306709,3.71062842 C33.6648633,2.04244345 31.4341384,1 28.9654511,1 C24.2250268,1 20.38182,4.84305377 20.38182,9.58317205 C20.38182,10.2558939 20.4578761,10.9110173 20.6041732,11.5392073 C13.4705056,11.1812691 7.14591004,7.76409906 2.91247558,2.57116366 C2.17364456,3.83886793 1.75036232,5.31331635 1.75036232,6.88631638 C1.75036232,9.86413596 3.2658229,12.4913628 5.56893122,14.0305431 C4.1618162,13.9860112 2.83840884,13.5999154 1.68103953,12.9570344 C1.68042741,12.9928436 1.68042741,13.0288057 1.68042741,13.0649209 C1.68042741,17.2236765 4.63911818,20.6928769 8.56572658,21.4812898 C7.84541224,21.6774748 7.08714634,21.7823007 6.30424254,21.7823007 C5.75119049,21.7823007 5.21344147,21.728587 4.6894652,21.628352 C5.78164355,25.0384827 8.95151635,27.5200245 12.7074958,27.5893473 C9.76992321,29.8913844 6.06888171,31.2636085 2.04754746,31.2636085 C1.3547786,31.2636085 0.671497628,31.2230554 0,31.1437856 C3.79852191,33.5791122 8.31031875,35 13.1575584,35 C28.9454041,35 37.5787702,21.9209463 37.5787702,10.5784821 C37.5787702,10.2063121 37.5705065,9.83613139 37.5539792,9.46809315 C39.2308869,8.25792833 40.6862066,6.74614048 41.8369956,5.02485395 C40.2976622,5.7075228 38.643403,6.16890961 36.9071195,6.37641891 Z"/>
</svg>
