<svg xmlns="http://www.w3.org/2000/svg" viewBox="0 0 37 36">
  <path fill="#8191da" fill-rule="evenodd" d="M18.2981872,0 C8.35675525,0 0.298072045,8.05875995 0.298072045,18.0001151 C0.298072045,27.941547 8.35675525,36 18.2981872,36 C28.2393121,36 36.2979953,27.941547 36.2979953,18.0001151 C36.2979953,8.05875995 28.2393121,0 18.2981872,0 M27.5147152,19.6008314 L25.1218523,18.0001151 L27.5147152,16.3994756 L27.5147152,19.6008314 Z M19.2545802,26.3858792 L19.2545802,21.9245483 L23.4014161,19.1511911 L26.7488916,21.389953 L19.2545802,26.3858792 Z M18.2982025,20.2629745 L14.9150413,18.0001151 L18.2982025,15.7372558 L21.6810567,18.0001151 L18.2982025,20.2629745 Z M17.3415178,26.3858792 L9.8471297,21.389953 L13.1949121,19.1511911 L17.3415178,21.9245483 L17.3415178,26.3858792 Z M9.08138289,16.3994756 L11.474476,18.0001151 L9.08138289,19.6008314 L9.08138289,16.3994756 Z M17.3415178,9.61435104 L17.3415178,14.0756819 L13.1949121,16.8496531 L9.8471297,14.6102005 L17.3415178,9.61435104 Z M19.2545802,9.61435104 L26.7488916,14.6102005 L23.4014161,16.8496531 L19.2545802,14.0756819 L19.2545802,9.61435104 Z M29.419259,14.4843411 C29.4172637,14.4702971 29.4137335,14.4568669 29.4114312,14.4428229 C29.4066731,14.4158092 29.4017615,14.3888722 29.3947011,14.3625492 C29.3905569,14.34674 29.3847244,14.3315448 29.3798128,14.3163496 C29.3721385,14.2928661 29.3645409,14.2694593 29.3551782,14.2466665 C29.348655,14.2308573 29.3411341,14.2150481 29.3338435,14.1998529 C29.3237901,14.1781345 29.313353,14.15703 29.3013042,14.1366163 C29.2925555,14.1213443 29.2831928,14.1066863 29.274137,14.092105 C29.2612441,14.0721517 29.2480442,14.0528123 29.2336164,14.0340869 C29.2231793,14.0200428 29.2120515,14.0059988 29.2009237,13.9924919 C29.1856517,13.9749944 29.1698426,13.9574201 29.1531892,13.940997 C29.14068,13.9281809 29.1282476,13.9152879 29.1151245,13.9035462 C29.0975502,13.887737 29.0794387,13.8724651 29.0609435,13.8578838 C29.0466692,13.846756 29.0325484,13.8356282 29.0176602,13.8251143 C29.0120579,13.8215841 29.0071463,13.8169028 29.001851,13.8133726 L18.828577,7.03124101 C18.5072518,6.81697311 18.0888462,6.81697311 17.7674443,7.03124101 L7.59424702,13.8133726 C7.58895172,13.8169028 7.58396339,13.8215841 7.57843786,13.8251143 C7.56347287,13.8356282 7.54942881,13.846756 7.53538474,13.8578838 C7.51665932,13.8724651 7.49847111,13.887737 7.48128056,13.9035462 C7.4677737,13.9152879 7.45549474,13.9281809 7.4429088,13.940997 C7.42625546,13.9574201 7.4104463,13.9749944 7.39548131,13.9924919 C7.38404653,14.0059988 7.37291872,14.0200428 7.36240486,14.0340869 C7.34836079,14.0528123 7.33485393,14.0721517 7.322268,14.092105 C7.31259831,14.1066863 7.30354258,14.1213443 7.29479382,14.1366163 C7.28305206,14.15703 7.2725382,14.1781345 7.26225457,14.1998529 C7.25496393,14.2150481 7.24736632,14.2308573 7.24091987,14.2466665 C7.23155716,14.2694593 7.22395955,14.2928661 7.2162852,14.3163496 C7.21129687,14.3315448 7.20577134,14.34674 7.20139696,14.3625492 C7.19433655,14.3888722 7.1896552,14.4158092 7.18466687,14.4428229 C7.18236457,14.4568669 7.17883436,14.4702971 7.17706926,14.4843411 C7.17146699,14.5253222 7.1683205,14.5669171 7.1683205,14.6090493 L7.1683205,21.3911809 C7.1683205,21.4333131 7.17146699,21.4749081 7.17706926,21.5165031 C7.17883436,21.5300099 7.18236457,21.5439772 7.18466687,21.5574073 C7.1896552,21.5844211 7.19433655,21.6112813 7.20139696,21.6376811 C7.20577134,21.6534902 7.21129687,21.6686854 7.2162852,21.6839574 C7.22395955,21.7072874 7.23155716,21.730771 7.24091987,21.7541777 C7.24736632,21.7700636 7.25496393,21.7852588 7.26225457,21.8004541 C7.2725382,21.822019 7.28305206,21.8431235 7.29479382,21.8642279 C7.30354258,21.8789627 7.31259831,21.8934672 7.322268,21.9081252 C7.33485393,21.9280785 7.34836079,21.9474179 7.36240486,21.9661433 C7.37291872,21.9808013 7.38404653,21.9942314 7.39548131,22.0076616 C7.4104463,22.0252358 7.42625546,22.0428101 7.4429088,22.0592332 C7.45549474,22.0720494 7.4677737,22.0849423 7.48128056,22.0966073 C7.49847111,22.1125699 7.51665932,22.1277652 7.53538474,22.1423464 C7.54942881,22.153551 7.56347287,22.1646021 7.57843786,22.1751159 C7.58396339,22.1786461 7.58895172,22.1833275 7.59424702,22.1867809 L17.7674443,28.9689892 C17.9281453,29.0761232 18.1131739,29.1299971 18.2982025,29.1299971 C18.4829242,29.1299971 18.667876,29.0761232 18.828577,28.9689892 L29.001851,22.1867809 C29.0071463,22.1833275 29.0120579,22.1786461 29.0176602,22.1751159 C29.0325484,22.1646021 29.0466692,22.153551 29.0609435,22.1423464 C29.0794387,22.1277652 29.0975502,22.1125699 29.1151245,22.0966073 C29.1282476,22.0849423 29.14068,22.0720494 29.1531892,22.0592332 C29.1698426,22.0428101 29.1856517,22.0252358 29.2009237,22.0076616 C29.2120515,21.9942314 29.2231793,21.9808013 29.2336164,21.9661433 C29.2480442,21.9474179 29.2612441,21.9280785 29.274137,21.9081252 C29.2831928,21.8934672 29.2925555,21.8789627 29.3013042,21.8642279 C29.313353,21.8431235 29.3237901,21.822019 29.3338435,21.8004541 C29.3411341,21.7852588 29.348655,21.7700636 29.3551782,21.7541777 C29.3645409,21.730771 29.3721385,21.7072874 29.3798128,21.6839574 C29.3847244,21.6686854 29.3905569,21.6534902 29.3947011,21.6376811 C29.4017615,21.6112813 29.4066731,21.5844211 29.4114312,21.5574073 C29.4137335,21.5439772 29.4172637,21.5300099 29.419259,21.5165031 C29.4245543,21.4749081 29.4278543,21.4333131 29.4278543,21.3911809 L29.4278543,14.6090493 C29.4278543,14.5669171 29.4245543,14.5253222 29.419259,14.4843411 L29.419259,14.4843411 Z M18.2981872,33.0439165 C10.0029037,33.0439165 3.2543858,26.2951684 3.2543858,18.0001151 C3.2543858,9.70513862 10.0029037,2.95631375 18.2981872,2.95631375 C26.5931637,2.95631375 33.3416815,9.70513862 33.3416815,18.0001151 C33.3416815,26.2951684 26.5931637,33.0439165 18.2981872,33.0439165"/>
</svg>
