<svg xmlns="http://www.w3.org/2000/svg" viewBox="0 0 43 36">
  <path fill="#8191DA" fill-rule="evenodd" d="M303.675,30.676 L298.34,30.676 L298.34,22.322 C298.34,20.33 298.302,17.767 295.565,17.767 C292.786,17.767 292.362,19.936 292.362,22.178 L292.362,30.676 L287.029,30.676 L287.029,13.497 L292.147,13.497 L292.147,15.844 L292.221,15.844 C292.933,14.493 294.676,13.069 297.273,13.069 C302.676,13.069 303.675,16.626 303.675,21.253 L303.675,30.676 Z M281.009,11.147 C279.293,11.147 277.911,9.76 277.911,8.051 C277.911,6.344 279.293,4.956 281.009,4.956 C282.717,4.956 284.104,6.344 284.104,8.051 C284.104,9.76 282.717,11.147 281.009,11.147 Z M278.335,30.676 L283.68,30.676 L283.68,13.497 L278.335,13.497 L278.335,30.676 Z M306.334,0 C307.802,0 309.001,1.162 309.001,2.594 L309.001,33.402 C309.001,34.836 307.802,36 306.334,36 L275.655,36 C274.19,36 273,34.836 273,33.402 L273,2.594 C273,1.162 274.19,0 275.655,0 L306.334,0 Z M314.73,28.148 L315.265,28.148 L315.265,30.676 L314.891,30.676 L314.891,28.753 L314.118,30.676 L313.868,30.676 L313.095,28.753 L313.095,30.676 L312.722,30.676 L312.722,28.148 L313.256,28.148 L313.993,30.004 L314.73,28.148 Z M310.534,28.523 L310.534,28.148 L312.289,28.148 L312.289,28.523 L311.601,28.523 L311.601,30.676 L311.225,30.676 L311.225,28.523 L310.534,28.523 Z" transform="translate(-273)"/>
</svg>
