<svg xmlns="http://www.w3.org/2000/svg" viewBox="0 0 43 36">
  <path fill="#8191DA" fill-rule="evenodd" d="M173.404534,6.58702132 C173.466311,6.63579299 173.486633,6.72195629 173.443958,6.79186236 L160.549539,27.7449874 L151.279263,12.6810423 L158.66614,0.676707009 C158.931133,0.246703396 159.420069,0 159.911443,0 C160.030121,0 160.148392,0.0182893786 160.264225,0.047958815 C160.356485,0.0715317919 160.447525,0.100794798 160.534095,0.144282876 L173.36511,6.55979046 L173.379742,6.56710621 C173.389902,6.57198338 173.396405,6.58051842 173.404534,6.58702132 Z M147.210486,9.94657695 L159.356259,29.6840679 L147.210486,23.6111814 L147.210486,9.94657695 Z M161.181133,30.5965047 L173.534592,10.5220827 L173.534592,34.5783056 C173.534592,35.7902818 172.479904,36.2458905 171.17892,35.5951951 L161.181133,30.5965047 Z M145.101924,6.60652999 C145.148663,6.62969653 145.178333,6.67765535 145.178333,6.72967847 L145.178333,34.5783056 C145.178333,35.4692016 144.697119,36 144.011064,36 C143.767612,36 143.498148,35.9329389 143.215273,35.7915011 L132.177836,30.2729859 C131.529986,29.9490607 131,29.0914921 131,28.3672327 L131,1.31114523 C131,0.598672327 131.38489,0.173952312 131.933571,0.173952312 C132.128658,0.173952312 132.344066,0.227601156 132.570448,0.340588873 L145.101924,6.60652999 Z" transform="translate(-131)"/>
</svg>
